<?xml version="1.0" encoding="utf-8"?>
<!-- Generator: Adobe Illustrator 27.2.0, SVG Export Plug-In . SVG Version: 6.00 Build 0)  -->
<svg version="1.1" id="Laag_1" xmlns="http://www.w3.org/2000/svg" xmlns:xlink="http://www.w3.org/1999/xlink" x="0px" y="0px"
	 viewBox="0 0 204 233" style="enable-background:new 0 0 204 233;" xml:space="preserve">
<style type="text/css">
	.st0{fill:#FFFFFF;}
</style>
<image style="overflow:visible;" width="258" height="284" id="ln27ah_00000106117077349923122550000000062537229727157165_" xlink:href="A8A40C22484E001A.png"  transform="matrix(1 0 0 1 -28 -24)">
</image>
<image style="overflow:visible;" width="236" height="236" xlink:href="A8A40C22484E001D.png"  transform="matrix(1 0 0 1 -3 -13)">
</image>
<g id="ln27ah">
	<g>
		<path d="M57.2,167.1c-5.6,4.6-11.1,9.1-16.5,13.6c-9.6,8-19.4,15.8-28.7,24.1c-5.1,4.6-4.3,11.8,1,16.1c5.1,4.1,11.2,3.1,16.1-2.8
			c10-11.9,19.8-24.1,29.9-35.9C66.2,173.9,66.4,174,57.2,167.1z"/>
		<path d="M134,101.7c6.1-2.9,12.3-5.7,18.4-8.5c1.4-0.6,3.2-0.3,5.9-0.6c11.5-26.1,23.1-52.7,34.8-79.3l-1.7-0.8
			c-0.9,1.6-1.9,3.1-2.8,4.7c-11.4,20.1-22.6,40.3-34.3,60.3c-1.8,3.1-5.2,5.9-8.5,7.6c-6.3,3.2-12.8,6.3-19.2,9.2L134,101.7
			L134,101.7z"/>
		<path d="M101.9,111.6c-0.1,0.4-0.1,0.8-0.2,1.3c-0.4,2.3-1.6,4.6-1.9,6.9c-1.6,13.2-8.6,22.9-19,30.7c-5.5,4-10.7,8.4-15.9,12.6
			c2.2,5,4.5,5.9,9.1,2.5c7.3-5.4,15.4-9.7,22.9-14.8c2.2-1.5,4.2-4,5-6.5c2.7-8.4,4.7-17,7.2-25.5L101.9,111.6L101.9,111.6z"/>
		<path class="st0" d="M134,101.7c6.1-2.9,12.3-5.7,18.4-8.5c1.4-0.6,3.2-0.3,5.9-0.6c11.5-26.1,23.1-52.7,34.8-79.3l-1.7-0.8
			c-0.9,1.6-1.9,3.1-2.8,4.7c-11.4,20.1-22.6,40.3-34.3,60.3c-1.8,3.1-5.2,5.9-8.5,7.6c-6.3,3.2-12.8,6.3-19.2,9.2L134,101.7
			L134,101.7z"/>
		<path class="st0" d="M101.9,111.6c-0.1,0.4-0.1,0.8-0.2,1.3c-0.4,2.3-1.6,4.6-1.9,6.9c-1.6,13.2-8.6,22.9-19,30.7
			c-5.5,4-10.7,8.4-15.9,12.6c2.2,5,4.5,5.9,9.1,2.5c7.3-5.4,15.4-9.7,22.9-14.8c2.2-1.5,4.2-4,5-6.5c2.7-8.4,4.7-17,7.2-25.5
			L101.9,111.6L101.9,111.6z"/>
		<path class="st0" d="M57.2,167.1c9.3,6.9,9.1,6.8,1.9,15.1C49,194,39.2,206.1,29.2,218.1c-5,5.9-11,6.9-16.1,2.8
			c-5.3-4.3-6.1-11.6-1-16.1c9.3-8.3,19.1-16.1,28.7-24.1C46.1,176.2,51.6,171.7,57.2,167.1z"/>
	</g>
</g>
<path class="st0" d="M194.7,184.5L194.7,184.5c-2.5,2.5-6.5,2.5-9,0L35.1,33.9c-2.5-2.5-2.5-6.5,0-9l0,0c2.5-2.5,6.5-2.5,9,0
	l150.6,150.6C197.2,178,197.2,182.1,194.7,184.5z"/>
<g>
	<image style="overflow:visible;" width="76" height="76" xlink:href="A8A40C22484E001F.png"  transform="matrix(1 0 0 1 82 66)">
	</image>
</g>
<path class="st0" d="M120.4,105.9c1.9,0,1.9-3,0-3S118.4,105.9,120.4,105.9L120.4,105.9z"/>
</svg>
